<svg id="Lag_1" data-name="Lag 1" xmlns="http://www.w3.org/2000/svg" viewBox="0 0 495.75 279.75"><defs><style>.cls-1{fill:#fff;}</style></defs><title>EriksmindeLogo</title><path class="cls-1" d="M46.42,541V261.2H542.17V541ZM446,391.5c3.65,2.44,5.58,6.12,8.41,8.87l.11,1.63c2.94,1.07,2.59-2.4,4.66-2.42-1.15-3.91-2.66-7.42-3.11-11.07-.49-3.9-2.8-7.38-2.47-10.33l-2-3.49-2.54,1.59c.4,1.77.73,3.26,1.09,4.8l1.72.21c1.94,2.72.51,5.94,1.2,8.75l1.44.5-.4,1.26a6.4,6.4,0,0,1-3.91-2.47c-2.3-3.2-4.73-6.3-7.16-9.4a6.15,6.15,0,0,1-.64-1.6l-.32-.85H439l.38.4-1.52.59c.24,3,2.22,4.42,3.83,6.11a5.28,5.28,0,0,0,0,1.05c.68,3.45,1.79,6.8,2.45,10.26.16.87.58,2.76,2.83,2.46C446.64,396.14,446.33,393.94,446,391.5Zm-44.35,3,4.66.94.29-.6-1.49-1.33c.26-.51.57-1.13.87-1.74l2.23-.33-1-2.1c1.33-2.27,2.62-4.47,3.94-6.74-2.06-1.84-2.21-4.38-2.65-6.71l-1.26.15c.34,4.71-2.33,8.49-4.25,12.61-3-4.18-5.54-8.52-5.55-14.28l-4.26-4.76-3.41,1.53c-.78,1.48-1.93,2.89-1.2,4.19s.49,2.57.68,3.86.5,2.53.73,3.81c.34,2,1.07,4,.76,6.05,1.33,1.06.52,2.54.74,3.82s.61,2.53.73,3.81a18.83,18.83,0,0,0,2.27,7.68c-1.19,2.57-1,3.09,1.85,6,2.44-1.8,5.9-1.68,8-4.12C403.35,402.33,402.52,398.54,401.63,394.53ZM353.17,406c1.57,2.75,4.42,3.81,6.95,5.47l1.59-1.8c-.8-1.6-1.26-3.26-2.28-4.45-3-3.53-5-7.73-8-11.3,2.64-1.67,4.11-4.11,3.06-6.24-.68-1.38-.27-2.62-.74-3.83-.88-2.26-3.45-3.77-3-6.1,2.07-2.83,3.7-5.36,5.64-7.63,2.54-3,4-7,7.84-8.51V359a3.76,3.76,0,0,0-4.1.7A5.23,5.23,0,0,1,357,361c-1.13,0-2.24.62-4,1.14a69.77,69.77,0,0,0-7.37,10.13c-.23.35-.77.5-1.46.92v-5.93l-3.08-1.42V355.21c-1.4-.88-2.18-1.32-2.72-1-1.66,1.06-3.53.51-5.16.77l-1,1a12.18,12.18,0,0,0,.58,5.2c.56,1.63.37,3.52.54,5.75a1.08,1.08,0,0,0-.42.72A32,32,0,0,0,333,374c.34,2,1.4,3.91,2,5.9a18,18,0,0,1,1,6,16.43,16.43,0,0,0,.61,6.83,59.75,59.75,0,0,1,1.83,7.76l5.84,1V388.8c.88,1.37,1.38,2.13,1.67,2.59l2.95,1.08a13.23,13.23,0,0,0,1.36,2.62,13.06,13.06,0,0,1,3.68,6.36l-2.87-1.07a19,19,0,0,0-4.78-6.92c-.27-.23-.8-.18-1.41-.3.19,2.45,1.83,3.59,3.21,5.08v2.36l1.87.21.87,2.11c-1.74.09-2.69-1.74-4.9-1.25a15.53,15.53,0,0,0,2.57,2.15C350,404.58,351.07,406.45,353.17,406Zm-132-54.75,1.18.69a4.55,4.55,0,0,1,4.66-1.68l.47-1.36,1.36,3.26c1.75-1.54,2.87-3,2.93-5.11,0-.05.32-.08.64-.15v2.64l2.09,1.28v-7.83a13.39,13.39,0,0,0-8.67-2.21l-1.66-1.9-3.31-1.19-2.53,2.52-2.47-1c-2,1.64-4,.42-6.23-.16-1,1.39-2.81,1.92-3.51,3.61s-2.05,2.48-3.41,3.39c-.29.19-.55.45-.85.66-2.56,1.8-5.31,3.49-7.18,6a81.83,81.83,0,0,0-5,8.37c-.33.57-.58,1.19-.88,1.79l.87.36c0,.37.16.86,0,1.11-3.55,4.82-5.72,10.36-8.13,15.75-.89,2-1.06,4.31-1.62,6.46a27.42,27.42,0,0,1-1,2.68l1.43.32c.59,1.78,1.7,3.64,1.72,5.5,0,3.28,1.68,5.07,4.28,6.43.62.33,1.17.8,1.81,1.07a22,22,0,0,0,2.26.73v1.58c-1.24,1.24-2.52,2.44-3.7,3.72a10.47,10.47,0,0,0-2.3,8.55,5.87,5.87,0,0,1,0,1.87,10.08,10.08,0,0,0,.8,4.93c1.06,3,2,6.07,4.69,8.2.61.48.85,1.39,1.36,2,2,2.5,3.31,5.42,5.19,8,2.71,3.65,4.68,7.86,8.31,10.8,1.31,1.06,2.64,2.1,3.93,3.19,1.76,1.48,3.42,3.11,5.28,4.47s3.8,3.06,6,3.62c4.12,1.06,7.69,3.21,11.45,4.95a18.32,18.32,0,0,0,9.13,2,14.55,14.55,0,0,0,1.58-2.57c.36-1-.24-2.12.79-3.07a6.1,6.1,0,0,0,1-2.2l2.09-1.53c-1.09-2.2-1.09-2.2-2.22-2.88v-2.65l.91,2.11h1.81v-3.18l-1.76.9c-.53-1-1.12-2.16-1.82-3.53-2.46.5-4.31-3.12-7.2-.9a60.12,60.12,0,0,1-4.4-4.48,101.51,101.51,0,0,0-9.06-10.47c-1.84-1.77-3.85-3.36-5.76-5.06-3.29-2.9-4.25-6.5-3.33-10.74,2.71.28,5-1,7.4-1.39a7.58,7.58,0,0,0,4.45-2.84c1.51-1.72,2.87-3.57,4.47-5.58-.18-2.46-2.46-2.94-4.23-4-1.29-1.46-2.89-2.65-4.05-4.18a38.26,38.26,0,0,1-2.81-5.14c1.18-1.35.88-3.27,1.41-4.89s1.49-3.14,1.39-4.92l3-1.59c-.12,1.89-1.66,2.38-2.28,3.46v4.95l1.29,2.51c-1.77,2.83,1.5,3.69,1.87,5.91l2.74-1v-2.79l-1.46-.51.84-1-2.87-2.2c.27-1.58.53-3.08.8-4.7l1.23-1.14V393c2.46.53,3.17,2.63,4.48,4.05,1.81-1.68,2-2.15,1-4-.69-1.35-1.53-2.63-2.35-4l.5-.61-4.44-3.85,1.23-3.53h2.89c-1.06-2.6-3.17-4.45-3.33-7.48.6-.95,1.35-2.14,2.39-3.77v-1.47l1.54-2.47-1.86-.86,2.42-1.42v-2.18l1.38-1.45.51-5.8-1-.81-11.19,9c-.07-1.85-.34-3,.17-4.38A9.14,9.14,0,0,0,221.17,351.2Zm53,59.39a10.43,10.43,0,0,1,1.41,1.41c2.05,3.52,4.08,7.06,6.1,10.59a16.06,16.06,0,0,0,.81,1.54c2.54,3.37,3.43,7.68,6.18,10.93.71,3.68,3.45,6.11,5.46,9,1.22,1.73,2.71,3.38,3.47,5.31,1.53,3.87,3.1,7.71,5,11.42a5.26,5.26,0,0,1,.35,1.48l5.38,5.38a109,109,0,0,0,9.84-5.59l4.8.76c.45-2.26,1.82-4.6.09-7.62l1.82-.79c-1.38-3.07-2.5-5.71-5.13-6.51a9,9,0,0,0,.31-2.62c-.31-1.34-1-2.6-1.38-3.92-1.24-4.1-2.39-8.25-4.68-11.93-2.95-4.74-5.71-9.6-9.75-13.6a68.25,68.25,0,0,1-5.21-6.56v-3l-3.22-1.65a17.85,17.85,0,0,0-1.18-3.38c-1.46-2.42-3.22-4.65-4.62-7.1-2-3.44-4.16-6.89-3.52-11.16.41-.37.77-.95,1.15-1,2-.11,3.5-1.27,5.08-2.24,3-1.86,5.79-3.93,6.44-7.76,1.37-1.13.21-2.89,1-4.09,1.05-1.64.24-3.37.53-5-1.67-1.08-.27-2.95-1.17-4.42-.71-1.16-.81-2.94-1.23-4.35A12.93,12.93,0,0,0,296,349a34.27,34.27,0,0,1-4-6.18,25.14,25.14,0,0,0-8-9.31c-2.07-1.37-4.42-2.71-7.15-2.59a5,5,0,0,1-4.3-1.5c-2.59,0-5.21,0-7.82,0a8.06,8.06,0,0,0-2.15.23c-2.88.88-5.74,1.83-8.6,2.76a11.57,11.57,0,0,1-4.94.76,2.19,2.19,0,0,0-.68.17l.24.24-1.89,1.32c.27,2,.58,3.64.68,5.3.07,1.21,1,2.12.85,3.44a7.05,7.05,0,0,0,.75,3.77,7.37,7.37,0,0,1,.67,3.85c0,1.75,0,3.5,0,5.25,0,.2.21.4.26.48l1.41.55-1,2a9.31,9.31,0,0,1,4.52,6.39,16,16,0,0,1,0,5.22c-.2,1.69.65,3.25.15,5-.38,1.37.24,3,.43,4.75l-.7.9.74,1.09-.68,1.58a5.12,5.12,0,0,1,2.47,2.08c1.65,2.57.93,5.55,2,8.17a5.8,5.8,0,0,1-.08,4c-.53,1.36.48,2.33.24,3.58-.28,1.45-.55,3.22,0,4.44,1.05,2.19.32,4.28.7,6.4-1.28,0-1.38.9-1.84,1.52-1.53,2,.68,3.55.35,5.27l1.36.28v2.44l-2.37,1.47c.32,3.12.65,6.21,1,9.22l-1.68.58,1,2.19-3.06,3.07v12c.81,1,2.31,1.7,1.25,3.23l-1.27.45,2.36,3.48-2.14,1.92c.57,1.77,1.14,3.53,1.77,5.46l-.69.91c1.36,1.8,3.26,1.93,5.33,2.29.41-1.77.81-3.47,1.2-5.16l7,2.7,6-2.77c.72-2.91.59-5.78,2.48-7.94a5.52,5.52,0,0,0,1-6.27l1.34-1.35c-.58-.42-1.55-.86-1.53-1.13.55-7.61-1.28-14.81-.73-22.1l-1,.81-.17-1.78-.86.5C275.57,420,274.91,415.61,274.17,410.59ZM491,379.87l.95.95a25.87,25.87,0,0,1,0,4.4c-.63,3.62-.52,3.58,0,7.27.48,3.49,2.5,5.89,4.88,8.1a30.29,30.29,0,0,0,3.52,2.43l2.9-.54,1.18,2c2.12,0,4.36,0,6.6,0a4.9,4.9,0,0,0,4.32-2.09c-.45-.87-.86-1.67-1.27-2.44l-6.63.94-2.52-3.42-3.58,2.28c-2.46-1.75-5.09-3.28-6.25-6.26,1.39-1.34,3-2.63,2.88-4.78a6.21,6.21,0,0,1,1.86-4.49h7.06c3.54-1.17,4.75-3.95,6.11-6.67,0-3.1-.78-4.94-3.08-6.49s-5-1.71-7.56-2.54c-1.45-.47-2.75.39-3.92,1.33-.32.25-.95.11-1.78.18l-1.89,2.35h-3l1,4.6c-2.43-.37-4.67-.36-6.62-1.11s-4.31,0-5.71-1.48c-1.61-1.7-4.09-1.29-5.41-2.92h-6.1l-2-2.51c-1.08.32-2,.63-2.88.83-.57.12-1.39.31-1.73,0-1.47-1.2-3.06-.31-4.44-.63l-1.34,1.44,1.93,1.21c-.42.79-.7,1.29-1,1.76.77,1.35,1.89,2.6,2.15,4s1,2.89,1.24,4.38c.14.7.55,1.54.31,2.08-1.31,2.84-.65,5.82-.62,8.71a9.14,9.14,0,0,0,1.47,5.49l2.74-.77c.31,2.43,2.13,2.89,3.93,3.67,2.15.92,3.57-.82,5.27-.66.57-.93.84-2,1.46-2.27,2.05-1,3.25-2.7,4.48-4.49.58-.85,1.7-1.31,2.49-2,2-1.88,5.05-2.37,6.74-5.32-.24-1.61-.55-3.62-.85-5.61Zm-385.3-10.06c-2.66,1.7-3.15,4.32-3.72,6.83a27.54,27.54,0,0,1-2.63,6.8H97l-1.79,1.88c.74,1.22,2.75,1.8,2.09,3.84-3,.66-2.24,3.63-3.27,5.63a11.26,11.26,0,0,0-.93-1.74c-2.34-2.85-3.41-6.37-4.58-9.71-.83-2.38-1.64-4.83-2.42-7.25-.72-2.26-1.79-4.41-1.47-6.89,0-.2-.16-.42-.31-.78L82,367.05l-2.16,1.23L76,366.55l-1.45,3.23,1.9,1.18c-.42,5.11,2.55,9.3,2.22,14,1.4,2.83,1.28,6.12,2.75,9.21l1.75-1.37c-.56-2-1.34-3.69-1.41-5.38a17.63,17.63,0,0,1,.7-4.4c-1.55-2.49-2.73-4.26-3.75-6.12a2.64,2.64,0,0,1,0-1.84,5.34,5.34,0,0,1,1-1.42l.83.74a13.58,13.58,0,0,1,2.46-2.1c0,.36.11.7.13,1.05.19,3-.2,6,.63,9.09.62,2.25,1.3,4.67.9,7.15a21.86,21.86,0,0,0,0,3.34c1.94,1,.57,4.4,3.57,4.81l.33-2.24a11.43,11.43,0,0,0,3.27,5.31,8.64,8.64,0,0,1,1.26,2.62l-3.26.68c2.89,1.39,2.84,4.4,4.66,5.32l7.09,1a10.81,10.81,0,0,0,1.83-5.12c0-3.62,0-7.24,0-10.86,0-.18.25-.35.45-.6l1.51,2.21,1-1.06c-.21-.21-.54-.38-.54-.56,0-3.09,0-6.18,0-9.38,2.2-3.77,2.44-7.2,1.85-14.5ZM134,404.24c1.26-.78.91-1.84.95-2.8a42.62,42.62,0,0,1,.33-6.61,12.66,12.66,0,0,0,0-5.58c-.54-2.43-2.07-4.56-2.32-6.87-.33-3-2.08-5.18-3.36-7.62a58.08,58.08,0,0,0-4.06-5.89L122.94,370v10.85c-2.8,1.45-2.87,1.68-1.3,3.94a6.18,6.18,0,0,1,1.23,2.09,29.81,29.81,0,0,1,.74,6.41c-.14,3.67,1.24,7,2,10.43.52,2.48,2.09,4.38,3.39,6.46,1.05,1.66,2.58,3.05,3,5.12a7.56,7.56,0,0,0,.8,1.8c1.68.15,3.21.44,3.73-1.55-.53-1.82-1.17-3.58-1.53-5.4S135.49,406.25,134,404.24Zm231.43,2.68c-.9.74-2.91.75-2.38,3.14,1.54,2.82,4.9,2.38,7.61,3.57.79-.84,1.51-1.61,2.19-2.32L372,410c2.42-1.19,5.27-1.18,6.94-2.55,2.77-4,0-6.93-1.08-10-1.24-3.43-3.82-5.89-7.24-7.94,2.86-2.11,3.58-5.67,7-6.61l2.13,1.2,1.82-1.63a13,13,0,0,0-1-7.15c-.62-.11-1.33,0-1.76-.36a2.92,2.92,0,0,0-3.07-.18,25.59,25.59,0,0,0-12.85,10.9c-.42.71-1,1.37-1.47,2.1v2c.67.7,1.26,1.34,1.82,1.93,3.93-.11,7.27,1.16,9.5,4.31,1.9,2.69,3.82,5.54,3.59,9.19-2.1-.08-3.69,1-5.59.85C369,405.93,367.26,406.58,365.4,406.92Zm20.15,27.6v16.29c1.54,1.17,2.92,1.45,4.36-.25,0-5.27,0-10.7,0-16.25h6.64v-2.64c-8.26-.63-15.89-.4-18.12.56-.24-.19-.51-.61-.79-.61-3.83-.05-7.67,0-11.35,0l-1.14.91v18.09l1,1h3.43c.21-2.78-.12-5.49.18-8.14h7l1-1v-2.07h-8v-5.84Zm-64.69-29.06,2.67,2.73h1.52l1.14-1.14c-.31-2.92.66-6-.59-8.56a18.61,18.61,0,0,0,1.27-3.86c.23-2.65-1.11-5.18-.77-7.87-1.15-.95-.49-2.87-2.08-3.67-.62-.31-.93-1.24-1.45-2-3,.32-5.6,1.37-6.89,4.42-.09,2.8.43,5.66-.79,8.3a7,7,0,0,0-.62,4.29l3.28,3.33h2.28l.88,1.85c.56-.7,1-1.23,1.55-1.91.82,1.18,1.61,2.33,2.33,3.35l-1,1.21a23.56,23.56,0,0,0-1.43-2.08c-.16-.19-.65-.1-1.15-.16C321,404.26,320.93,404.73,320.86,405.46ZM469.33,451.7H477c2.89-1.39,5.19-3.14,6.25-6a10.94,10.94,0,0,0,0-8.43c-1.27-3.09-3.83-4.2-6.19-5.81-1.87,0-3.74-.05-5.62,0A8.26,8.26,0,0,0,465,434.8c-1.65,2.18-3,4.63-2.39,7.62a6.6,6.6,0,0,1,0,1.67C464.1,447.65,466,450.21,469.33,451.7Zm-51.54-1.25v-6.84a5.67,5.67,0,0,1,4.8.79c.89,2.61,1.67,4.9,2.44,7.14h4.62c-2.39-3.06-1.66-6.86-4.53-9.33l3-2.86v-3.78c-.63-.89-1.07-2.19-1.9-2.53-1.69-.69-3.24-1.86-5.32-1.64a64,64,0,0,1-6.64.05l-1,1v19.13h3.38Zm34.86-7.86,6.78,8.9h4.27c-2.17-4.57-6.06-7.46-8.54-11.43,2.3-2.29,4.61-4.57,6.88-6.89a7.26,7.26,0,0,0,.83-1.62H459l-8.28,8.39v-8.32H447V451.5h3.64v-6.93Zm49.14-10.14v19.26c4.55-.06,9,.07,13.24-.08v-3h-8.71v-6h7.93v-3h-7.89v-5.28H515a2.15,2.15,0,0,0-1-2.84H502.76ZM410,431.58H397.42c0,6.6,0,13.07,0,19.55a.7.7,0,0,0,.12.32c.07.09.18.17.12.11h13.17v-2.9h-9.58v-6h8.8v-3H401.3v-5.15h8.54l1.33-1.49Zm-56,11h8.09v-2.92H354v-5.29h8.78v-2.92c-4.3.05-8.47-.06-12.49.07v20.1H363.5v-3H354Zm77.74-37.47c1.36-1.84,2.39-3.5,1-5.86a9.23,9.23,0,0,1-.83-5.26,31.9,31.9,0,0,0,0-4.48,20,20,0,0,0-.85-5.62c-.38-1-.55-2.83-2.65-2.67l-.47,2.36c-1.55-1.4-1.55-1.4-3.39-1.55l-1.76,3c.29.36.69.63.7.91.09,2.86,1,5.56,1.77,8.26.5,1.85.3,4,2.11,5.51.64.54.63,1.95.79,3a16.6,16.6,0,0,1,0,2.44Zm10.48,30.5,1.16-2.82L442,431.45c-1.91,0-3.9,0-5.88,0a4.82,4.82,0,0,0-3.87,1.51c-.6.64-1.24,1.24-1.92,1.93.36,1.34-.14,2.72.47,4.24,1,2.37,3.09,2.83,4.92,3.47a9.63,9.63,0,0,1,4.38,2.76v2.25l-.94.94a22.32,22.32,0,0,1-8.85-.67c.19,1.53-.38,2.86,1.18,3.75h9.13c1.57-1.78,3.77-3.12,4.07-5.87-.8-2.25-2.57-3.73-3.81-4.9l-5.78-2.21-.88-1.77c.72-.79,1.38-1.5,2.23-2.41C438,434.65,440,433.93,442.22,435.6Zm44.56-4.08v20h13.27v-2.94h-9.74V431.52ZM420,406.9c-.82-2.18-1.86-4.22-1.54-6.58.07-.49.21-1.15,0-1.47-1.25-1.69-.86-3.84-1.77-5.66a36.2,36.2,0,0,1-1.79-5c-1.5-1.37-2.37-2.18-3.26-3-.11-.1-.34-.07-.48-.09l-1,1c2,1.22,1.22,3.57,2.19,5.33s1.2,4,1.89,6c.75,2.11-.1,4.15.64,6.1l-.68.7,2.21.59c-.49,1-.78,1.64-1.05,2.19l1.2,1.2C417.73,408.18,419.05,408.54,420,406.9Zm21.6-17.55-1.57.3,1.14,6.63,1.55-.3C442.29,393.73,441.92,391.57,441.55,389.35ZM222.78,353.07c.36.63.73,1.3,1.2,2.14l1.23-.86,2.53,1-1.47-3.44C224.88,352.06,223.66,351.58,222.78,353.07Zm117.93,53.66a1.89,1.89,0,0,0,.79,2.85c.95.49,1.89,0,2.68-1.08,0-.71-.08-1.64-.15-3l-2.56,1.87Zm69-33.84-1.23,1.63,3.05,2.16v-2C411.05,374.23,410.44,373.61,409.72,372.89Zm14.91,4.3a13.63,13.63,0,0,1,1.78,1.15c.48.46.13,1.89,1.51,1.23C428.05,376.92,427.74,376.65,424.63,377.19ZM228,383.77l1.64,2.63c.42-1,.67-1.54.65-1.48l-1.17-2.28ZM88.72,400.06l.5-.5L89,398.4l-1.88.35Z" transform="translate(-46.42 -261.2)"/><path d="M274.26,410.94c.65,4.67,1.31,9.05,2,13.62l.86-.5.17,1.78,1-.81c-.55,7.29,1.28,14.49.73,22.1,0,.27.95.71,1.53,1.13l-1.34,1.35a5.52,5.52,0,0,1-1,6.27c-1.89,2.16-1.76,5-2.48,7.94l-6,2.77-7-2.7c-.39,1.69-.79,3.39-1.2,5.16-2.07-.36-4-.49-5.33-2.29l.69-.91c-.63-1.93-1.2-3.69-1.77-5.46l2.14-1.92L254.91,455l1.27-.45c1.06-1.53-.44-2.27-1.25-3.23v-12l3.06-3.07-1-2.19,1.68-.58c-.31-3-.64-6.1-1-9.22l2.37-1.47v-2.44l-1.36-.28c.33-1.72-1.88-3.23-.35-5.27.46-.62.56-1.5,1.84-1.52-.38-2.12.35-4.21-.7-6.4-.59-1.22-.32-3,0-4.44.24-1.25-.77-2.22-.24-3.58a5.8,5.8,0,0,0,.08-4c-1.11-2.62-.39-5.6-2-8.17a5.12,5.12,0,0,0-2.47-2.08l.68-1.58-.74-1.09.7-.9c-.19-1.73-.81-3.38-.43-4.75.5-1.79-.35-3.35-.15-5a16,16,0,0,0,0-5.22,9.31,9.31,0,0,0-4.52-6.39l1-2-1.41-.55c-.05-.08-.25-.28-.26-.48,0-1.75,0-3.5,0-5.25a7.37,7.37,0,0,0-.67-3.85,7.05,7.05,0,0,1-.75-3.77c.1-1.32-.78-2.23-.85-3.44-.1-1.66-.41-3.3-.68-5.3l1.89-1.32-.24-.24a2.19,2.19,0,0,1,.68-.17,11.57,11.57,0,0,0,4.94-.76c2.86-.93,5.72-1.88,8.6-2.76a8.06,8.06,0,0,1,2.15-.23c2.61,0,5.23,0,7.82,0a5,5,0,0,0,4.3,1.5c2.73-.12,5.08,1.22,7.15,2.59a25.14,25.14,0,0,1,8,9.31,34.27,34.27,0,0,0,4,6.18,12.93,12.93,0,0,1,2.27,5.07c.42,1.41.52,3.19,1.23,4.35.9,1.47-.5,3.34,1.17,4.42-.29,1.66.52,3.39-.53,5-.76,1.2.4,3-1,4.09-.65,3.83-3.42,5.9-6.44,7.76-1.58,1-3.08,2.13-5.08,2.24-.38,0-.74.6-1.15,1-.64,4.27,1.55,7.72,3.52,11.16,1.4,2.45,3.16,4.68,4.62,7.1a17.85,17.85,0,0,1,1.18,3.38l3.22,1.65v3a68.25,68.25,0,0,0,5.21,6.56c4,4,6.8,8.86,9.75,13.6,2.29,3.68,3.44,7.83,4.68,11.93.4,1.32,1.07,2.58,1.38,3.92a9,9,0,0,1-.31,2.62c2.63.8,3.75,3.44,5.13,6.51l-1.82.79c1.73,3,.36,5.36-.09,7.62l-4.8-.76a109,109,0,0,1-9.84,5.59L303,462.26a5.26,5.26,0,0,0-.35-1.48c-1.9-3.71-3.47-7.55-5-11.42-.76-1.93-2.25-3.58-3.47-5.31-2-2.88-4.75-5.31-5.46-9-2.75-3.25-3.64-7.56-6.18-10.93a16.06,16.06,0,0,1-.81-1.54c-2-3.53-4.05-7.07-6.1-10.59a3.54,3.54,0,0,0-1.32-1.06c.14.29.19.24.24.19l-.52-.61-.24.23C273.94,410.93,274.15,411.1,274.26,410.94Zm1.66-6.49.75.75c.54,4.6,2.73,8.62,4.83,12.58,1.57,3,3.43,5.78,5.05,8.75,1,1.81,1.88,3.73,3,5.51a70.19,70.19,0,0,0,5.5,7.11,7.64,7.64,0,0,0,3.36,2.66,4.1,4.1,0,0,1,3,2.68,19,19,0,0,0,1.62,2.62h4.14c.3-1.49.29-3.15,2.53-3l-.15.15.52.61.24-.24a2.1,2.1,0,0,0-.68-.44c.73-1.57,1-3.38,2.65-4.64-2-1.29-1.73-3.44-2.8-5.06-2.3-3.45-4.95-6.63-7.21-10.09a17.44,17.44,0,0,1-2.57-4.56c-.55-1.79-2.42-3.18-3.63-4.64l1-2.72c-.45-.45-.82-.67-1-1-.57-1.26-.73-3-1.69-3.71a35.39,35.39,0,0,1-3.3-2.78c-.15-.13-.1-.46-.23-.64a10.64,10.64,0,0,0-4.42-4,14.62,14.62,0,0,0-1.78-6.51l-1.95,1.79c-1.12-1.06-1.82-2.28-3.29-2.43l-1.7,1.07c-.37-.51-.69-.89-.95-1.31s-.35-.75-.63-1.37c-.78,1.89.37,2.61,1.22,3.47v2.26c.79.78,1.54,1.63,2.4,2.34.31.26.9.2,1.36.29v1.12c-1.91,1-1.91,1-3.38,4.13h-1.12a3.54,3.54,0,0,0-.82-.67l.15-.15-.52-.61-.24.23A2.12,2.12,0,0,0,275.92,404.45Zm37.48,51.92,0,.64,1.47-.28-.07-.49a1.39,1.39,0,0,0-1.33.78l-.15-.15-.61.52.24.24A1.89,1.89,0,0,0,313.4,456.37Zm-36.74-82.52,0,.68,2.21-.29,0-.5a2.2,2.2,0,0,0-2.17,1.31l0-.69-2.21.29,0,.5A2.19,2.19,0,0,0,276.66,373.85Zm-11.28-32.39c3.1,0,3.1,0,5.11-1.33-1.67-.71-3,.27-4.3,1.9l0-.65-1.47.29.07.48C265.23,342.11,265.71,342.07,265.38,341.46Zm6,5.24-6.59,3.63,2.77.16,3.88,5.5c0,3.83,0,7.56,0,11.29,0,.09.14.18.28.35h3.13c4.36-2.47,4.41-2.51,6.13-5.25,0-3.11.48-6.05-.14-8.73-.59-2.5-2.35-4.72-3.54-6.95ZM318.17,445h.25v-.75h-.25Z" transform="translate(-46.42 -261.2)"/><path d="M189.63,363.16c-.17-.05-.39-.14-.83-.32.3-.6.55-1.22.88-1.79a81.83,81.83,0,0,1,5-8.37c1.87-2.49,4.62-4.18,7.18-6,.3-.21.56-.47.85-.66,1.36-.91,2.73-1.76,3.41-3.39s2.54-2.22,3.51-3.61c2.24.58,4.28,1.8,6.23.16l2.47,1,2.53-2.52,3.31,1.19,1.66,1.9a13.39,13.39,0,0,1,8.67,2.21v7.83l-2.09-1.28v-2.64c-.32.07-.64.1-.64.15-.06,2.08-1.18,3.57-2.93,5.11l-1.36-3.26-.47,1.36a4.55,4.55,0,0,0-4.66,1.68,12.73,12.73,0,0,0-1.21-.65l.11-.11-.52-.61-.24.23a4,4,0,0,0,.65.49,8.88,8.88,0,0,1-.38,6.67c-.51,1.37-.24,2.53-.17,4.38l11.19-9,1,.81-.51,5.8-1.38,1.45v2.18L228.47,365l1.86.86-1.54,2.47v1.47c-1,1.63-1.79,2.82-2.39,3.77.16,3,2.27,4.88,3.33,7.48h-2.89l-1.23,3.53,4.44,3.85-.5.61c.82,1.41,1.66,2.69,2.35,4,.93,1.83.78,2.3-1,4-1.31-1.42-2-3.52-4.48-4.05v-3.07l-1.23,1.14c-.27,1.62-.53,3.12-.8,4.7l2.87,2.2-.84,1,1.46.51v2.79l-2.74,1c-.37-2.22-3.64-3.08-1.87-5.91L222,394.83v-4.95c.62-1.08,2.16-1.57,2.28-3.46l-3,1.59c.1,1.78-.85,3.3-1.39,4.92s-.23,3.54-1.41,4.89a38.26,38.26,0,0,0,2.81,5.14c1.16,1.53,2.76,2.72,4.05,4.18,1.77,1,4,1.5,4.23,4-1.6,2-3,3.86-4.47,5.58a7.58,7.58,0,0,1-4.45,2.84c-2.42.43-4.69,1.67-7.4,1.39-.92,4.24,0,7.84,3.33,10.74,1.91,1.7,3.92,3.29,5.76,5.06a101.51,101.51,0,0,1,9.06,10.47,60.12,60.12,0,0,0,4.4,4.48c2.89-2.22,4.74,1.4,7.2.9.7,1.37,1.29,2.5,1.82,3.53l1.76-.9v3.18H244.7l-.91-2.11v2.65c1.13.68,1.13.68,2.22,2.88l-2.09,1.53a6.1,6.1,0,0,1-1,2.2c-1,1-.43,2.1-.79,3.07a14.55,14.55,0,0,1-1.58,2.57,18.32,18.32,0,0,1-9.13-2c-3.76-1.74-7.33-3.89-11.45-4.95-2.17-.56-4.09-2.24-6-3.62s-3.52-3-5.28-4.47c-1.29-1.09-2.62-2.13-3.93-3.19-3.63-2.94-5.6-7.15-8.31-10.8-1.88-2.55-3.21-5.47-5.19-8-.51-.64-.75-1.55-1.36-2-2.67-2.13-3.63-5.21-4.69-8.2a10.08,10.08,0,0,1-.8-4.93,5.87,5.87,0,0,0,0-1.87,10.47,10.47,0,0,1,2.3-8.55c1.18-1.28,2.46-2.48,3.7-3.72v-1.58a22,22,0,0,1-2.26-.73c-.64-.27-1.19-.74-1.81-1.07-2.6-1.36-4.25-3.15-4.28-6.43,0-1.86-1.13-3.72-1.72-5.5l-1.43-.32a27.42,27.42,0,0,0,1-2.68c.56-2.15.73-4.46,1.62-6.46,2.41-5.39,4.58-10.93,8.13-15.75.18-.25,0-.74,0-1.15l.11.12.61-.53-.24-.23A5.09,5.09,0,0,0,189.63,363.16ZM202.5,358l-.15-.15-.61.52.24.24a1.24,1.24,0,0,0,.36-.75l.15.15.61-.53-.24-.23A1.21,1.21,0,0,0,202.5,358ZM209.92,430l-.75-.75c.12-1.17-.32-2-2.12-2.11l.63-.14c-.34-2.22-.69-4.44-1-6.6l-4.6-2a54.4,54.4,0,0,0,5.61,8.6,1.86,1.86,0,0,0,1.5,2.25,2.49,2.49,0,0,0,1.33.73l-.65,0,.29,1.47.49-.07A1.68,1.68,0,0,0,209.92,430Zm6.78-61.5-.4-.37-1.14,1.76,1.43.1a7.38,7.38,0,0,0,0-1.56l.15.15.61-.53-.24-.23A1.75,1.75,0,0,0,216.7,368.45Zm-3.85,66.83.15-.15-.52-.61-.24.23a2.12,2.12,0,0,0,.68.45c.08.46,0,1.07.27,1.34,3.11,3.15,6.1,6.4,10,8.66,1.3.75,2.32,2,4,1.92l-.15.15.52.61.24-.24a2.1,2.1,0,0,0-.68-.44,19.7,19.7,0,0,1-3.29-3,29.77,29.77,0,0,0-5.65-5.73C216.57,437.07,214.48,436.61,212.85,435.28Zm-5.28-49.12c.48,2-.62,4.35.94,6.44a6.24,6.24,0,0,0-1.48,5.57l1.7.84,2.44-.81.91-1.68-2-1.15c-.46-1.46,0-2.88-.79-4.3a4.7,4.7,0,0,1,0-4c.86-1.58.48-3.08.62-4.61,0-.15-.26-.33-.66-.8v2.87Zm-3-31.09-.65.08.3,1.22.35-.06Zm1-1,.64,0-.27-1.25-.37.05Zm21.62,35.14V389h-.75v.25Zm-5.75-3.5h.25V385h-.25Zm5.5-23.25h-.25v.75h.25Zm-28-.75h.25V361h-.25Z" transform="translate(-46.42 -261.2)"/><path d="M491,379.87l-2.74.89c.3,2,.61,4,.85,5.61-1.69,2.95-4.73,3.44-6.74,5.32-.79.73-1.91,1.19-2.49,2-1.23,1.79-2.43,3.48-4.48,4.49-.62.3-.89,1.34-1.46,2.27-1.7-.16-3.12,1.58-5.27.66-1.8-.78-3.62-1.24-3.93-3.67l-2.74.77a9.14,9.14,0,0,1-1.47-5.49c0-2.89-.69-5.87.62-8.71.24-.54-.17-1.38-.31-2.08-.28-1.49-1-2.85-1.24-4.38s-1.38-2.66-2.15-4c.26-.47.54-1,1-1.76l-1.93-1.21,1.34-1.44c1.38.32,3-.57,4.44.63.34.28,1.16.09,1.73,0,.91-.2,1.8-.51,2.88-.83l2,2.51H475c1.32,1.63,3.8,1.22,5.41,2.92,1.4,1.47,3.8.75,5.71,1.48s4.19.74,6.62,1.11l-1-4.6h3l1.89-2.35c.83-.07,1.46.07,1.78-.18,1.17-.94,2.47-1.8,3.92-1.33,2.52.83,5.31,1,7.56,2.54s3,3.39,3.08,6.49c-1.36,2.72-2.57,5.5-6.11,6.67h-7.06a6.21,6.21,0,0,0-1.86,4.49c.09,2.15-1.49,3.44-2.88,4.78,1.16,3,3.79,4.51,6.25,6.26l3.58-2.28,2.52,3.42,6.63-.94c.41.77.82,1.57,1.27,2.44a4.9,4.9,0,0,1-4.32,2.09c-2.24,0-4.48,0-6.6,0l-1.18-2-2.9.54a30.29,30.29,0,0,1-3.52-2.43c-2.38-2.21-4.4-4.61-4.88-8.1-.5-3.69-.61-3.65,0-7.27a25.87,25.87,0,0,0,0-4.4Zm-15.81,16,8.49-8.48c0-.52.06-1.1.08-1.57l2.69-.46c-.85-1-1.6-1.53-1.89-2.26-.95-2.42-2.94-3.79-5.07-4.85a15.46,15.46,0,0,1-2-1.43c-1.73-1.16-3.52-2.1-5.5-1.48a58.46,58.46,0,0,1,2.94,13.88l1.08,1.17C475.67,392.39,475.47,393.77,475.16,395.9Zm32.27-22.07h-2.74c-1.05,2.39-2.07,4.69-3.13,7.09,3.54,1.06,5.64-.87,7.6-3.15v-2.21Z" transform="translate(-46.42 -261.2)"/><path d="M354,401.41a13.41,13.41,0,0,0-3.71-6.32,13.23,13.23,0,0,1-1.36-2.62l-2.95-1.08c-.29-.46-.79-1.22-1.67-2.59v12.73l-5.84-1a59.75,59.75,0,0,0-1.83-7.76,16.43,16.43,0,0,1-.61-6.83,18,18,0,0,0-1-6c-.58-2-1.64-3.88-2-5.9a32,32,0,0,1-.05-6.35,1.08,1.08,0,0,1,.42-.72c-.17-2.23,0-4.12-.54-5.75a12.18,12.18,0,0,1-.58-5.2l1-1c1.63-.26,3.5.29,5.16-.77.54-.35,1.32.09,2.72,1v10.64l3.08,1.42v5.93c.69-.42,1.23-.57,1.46-.92A69.77,69.77,0,0,1,353,362.15c1.73-.52,2.84-1.11,4-1.14a5.23,5.23,0,0,0,3.23-1.36,3.76,3.76,0,0,1,4.1-.7v2.61c-3.88,1.55-5.3,5.55-7.84,8.51-1.94,2.27-3.57,4.8-5.64,7.63-.5,2.33,2.07,3.84,3,6.1.47,1.21.06,2.45.74,3.83,1.05,2.13-.42,4.57-3.06,6.24,2.95,3.57,4.94,7.77,8,11.3,1,1.19,1.48,2.85,2.28,4.45l-1.59,1.8c-2.53-1.66-5.38-2.72-6.95-5.47l.75-.57a9.55,9.55,0,0,0-.78-.89l.11-.11-.52-.61-.24.23a4,4,0,0,0,.65.49c0,.46,0,1,0,1.46-2.1.5-3.16-1.37-4.69-2.13a15.53,15.53,0,0,1-2.57-2.15c2.21-.49,3.16,1.34,4.9,1.25l-.87-2.11-1.87-.21v-2.36c-1.38-1.49-3-2.63-3.21-5.08.61.12,1.14.07,1.41.3a19,19,0,0,1,4.78,6.92c.94.35,1.9.71,2.9,1l-.11.11.52.61.24-.24A3.9,3.9,0,0,0,354,401.41Zm3,5.21-.15.15.52.61.24-.24a1.81,1.81,0,0,0-1.26-.42l.65,0-.29-1.46-.49.06A1.43,1.43,0,0,0,357,406.62Zm-8-23.41c-.59,2.19-2.34,3.67-1.27,5.36.45.9.91,1.79,1.78,3.52l.89-2.59C351.13,387.61,350.69,385.49,349,383.21Z" transform="translate(-46.42 -261.2)"/><path d="M105.67,369.81l2,.8c.59,7.3.35,10.73-1.85,14.5,0,3.2,0,6.29,0,9.38,0,.18.33.35.54.56l-1,1.06-1.51-2.21c-.2.25-.45.42-.45.6,0,3.62,0,7.24,0,10.86a10.81,10.81,0,0,1-1.83,5.12l-7.09-1c-1.82-.92-1.77-3.93-4.66-5.32l3.26-.68a8.64,8.64,0,0,0-1.26-2.62,11.43,11.43,0,0,1-3.27-5.31l-.33,2.24c-3-.41-1.63-3.79-3.57-4.81a21.86,21.86,0,0,1,0-3.34c.4-2.48-.28-4.9-.9-7.15-.83-3.06-.44-6.07-.63-9.09,0-.35-.09-.69-.13-1.05a13.58,13.58,0,0,0-2.46,2.1l-.83-.74a5.34,5.34,0,0,0-1,1.42,2.64,2.64,0,0,0,0,1.84c1,1.86,2.2,3.63,3.75,6.12a17.63,17.63,0,0,0-.7,4.4c.07,1.69.85,3.35,1.41,5.38l-1.75,1.37c-1.47-3.09-1.35-6.38-2.75-9.21.33-4.74-2.64-8.93-2.22-14l-1.9-1.18L76,366.55l3.88,1.73L82,367.05l2.31,1.37c.15.36.33.58.31.78-.32,2.48.75,4.63,1.47,6.89.78,2.42,1.59,4.87,2.42,7.25,1.17,3.34,2.24,6.86,4.58,9.71a11.26,11.26,0,0,1,.93,1.74c1-2,.3-5,3.27-5.63.66-2-1.35-2.62-2.09-3.84L97,383.44h2.29a27.54,27.54,0,0,0,2.63-6.8C102.52,374.13,103,371.51,105.67,369.81Z" transform="translate(-46.42 -261.2)"/><path d="M401.74,394.65c.78,3.89,1.61,7.68,2.48,11.6-2.05,2.44-5.51,2.32-8,4.12-2.88-2.89-3-3.41-1.85-6a18.83,18.83,0,0,1-2.27-7.68c-.12-1.28-.5-2.54-.73-3.81s.59-2.76-.74-3.82c.31-2.09-.42-4.05-.76-6.05-.23-1.28-.55-2.53-.73-3.81s.07-2.54-.68-3.86.42-2.71,1.2-4.19l3.41-1.53,4.26,4.76c0,5.76,2.53,10.1,5.55,14.28,1.92-4.12,4.59-7.9,4.25-12.61l1.26-.15c.44,2.33.59,4.87,2.65,6.71-1.32,2.27-2.61,4.47-3.94,6.74l1,2.1-2.23.33c-.3.61-.61,1.23-.87,1.74l1.49,1.33-.29.6c-1.44-.29-2.88-.59-4.55-.82.16.08.21,0,.26,0l-.52-.61-.24.23A4,4,0,0,0,401.74,394.65Z" transform="translate(-46.42 -261.2)"/><path d="M134,404.24c1.52,2,.61,4.06,1,5.92s1,3.58,1.53,5.4c-.52,2-2,1.7-3.73,1.55a7.56,7.56,0,0,1-.8-1.8c-.4-2.07-1.93-3.46-3-5.12-1.3-2.08-2.87-4-3.39-6.46-.73-3.46-2.11-6.76-2-10.43a29.81,29.81,0,0,0-.74-6.41,6.18,6.18,0,0,0-1.23-2.09c-1.57-2.26-1.5-2.49,1.3-3.94V370l2.53-1.14a58.08,58.08,0,0,1,4.06,5.89c1.28,2.44,3,4.59,3.36,7.62.25,2.31,1.78,4.44,2.32,6.87a12.66,12.66,0,0,1,0,5.58,42.62,42.62,0,0,0-.33,6.61C134.88,402.4,135.23,403.46,134,404.24Z" transform="translate(-46.42 -261.2)"/><path d="M365.4,406.92c1.86-.34,3.63-1,5.36-.88,1.9.12,3.49-.93,5.59-.85.23-3.65-1.69-6.5-3.59-9.19-2.23-3.15-5.57-4.42-9.5-4.31-.56-.59-1.15-1.23-1.82-1.93v-2c.52-.73,1.05-1.39,1.47-2.1a25.59,25.59,0,0,1,12.85-10.9,2.92,2.92,0,0,1,3.07.18c.43.32,1.14.25,1.76.36a13,13,0,0,1,1,7.15l-1.82,1.63-2.13-1.2c-3.44.94-4.16,4.5-7,6.61,3.42,2,6,4.51,7.24,7.94,1.12,3.06,3.85,6,1.08,10-1.67,1.37-4.52,1.36-6.94,2.55l.81,1.36c-.68.71-1.4,1.48-2.19,2.32-2.71-1.19-6.07-.75-7.61-3.57C362.49,407.67,364.5,407.66,365.4,406.92Z" transform="translate(-46.42 -261.2)"/><path d="M385.55,434.52H369.79v5.84h8v2.07l-1,1h-7c-.3,2.65,0,5.36-.18,8.14h-3.43l-1-1V432.5l1.14-.91c3.68,0,7.52,0,11.35,0,.28,0,.55.42.79.61,2.23-1,9.86-1.19,18.12-.56v2.64H390c-.07,5.55,0,11,0,16.25-1.44,1.7-2.82,1.42-4.36.25Z" transform="translate(-46.42 -261.2)"/><path d="M320.86,405.46c.07-.73.11-1.2.16-1.75.5.06,1,0,1.15.16A23.56,23.56,0,0,1,323.6,406l1-1.21c-.72-1-1.51-2.17-2.33-3.35-.56.68-1,1.21-1.55,1.91l-.88-1.85h-2.28l-3.28-3.33a7,7,0,0,1,.62-4.29c1.22-2.64.7-5.5.79-8.3,1.29-3,3.86-4.1,6.89-4.42.52.74.83,1.67,1.45,2,1.59.8.93,2.72,2.08,3.67-.34,2.69,1,5.22.77,7.87a18.61,18.61,0,0,1-1.27,3.86c1.25,2.54.28,5.64.59,8.56l-1.14,1.14h-1.52Zm.81-7.26V398h-.75v.25Z" transform="translate(-46.42 -261.2)"/><path d="M445.78,391.61c.55,2.33.86,4.53,1.18,6.74-2.25.3-2.67-1.59-2.83-2.46-.66-3.46-1.77-6.81-2.45-10.26a5.28,5.28,0,0,1,0-1.05c-1.61-1.69-3.59-3.06-3.83-6.11l1.52-.59-.38-.4h3.12l.32.85a6.15,6.15,0,0,0,.64,1.6c2.43,3.1,4.86,6.2,7.16,9.4a6.4,6.4,0,0,0,3.91,2.47l.4-1.26-1.44-.5c-.69-2.81.74-6-1.2-8.75l-1.72-.21c-.36-1.54-.69-3-1.09-4.8l2.54-1.59,2,3.49c-.33,2.95,2,6.43,2.47,10.33.45,3.65,2,7.16,3.11,11.07-2.07,0-1.72,3.49-4.66,2.42l-.11-1.63c-2.83-2.75-4.76-6.43-8.61-8.76,0,.1.24.09.46.07l-.29-1.46-.49.06A3.14,3.14,0,0,0,445.78,391.61Z" transform="translate(-46.42 -261.2)"/><path d="M469.33,451.7c-3.35-1.49-5.23-4.05-6.66-7.61a6.6,6.6,0,0,0,0-1.67c-.6-3,.74-5.44,2.39-7.62a8.26,8.26,0,0,1,6.44-3.34c1.88-.06,3.75,0,5.62,0,2.36,1.61,4.92,2.72,6.19,5.81a10.94,10.94,0,0,1,0,8.43c-1.06,2.87-3.36,4.62-6.25,6Zm10.59-7.89v-3.64c-1.34-5.23-4.48-6.39-7.65-5.8a7.4,7.4,0,0,0-5.15,4.69c-1.07,2.28.09,4.3.19,6.4l3.2,3.21C476.89,448.74,476.89,448.74,479.92,443.81Z" transform="translate(-46.42 -261.2)"/><path d="M417.79,450.45l-1.15,1.16h-3.38V432.48l1-1a64,64,0,0,0,6.64-.05c2.08-.22,3.63,1,5.32,1.64.83.34,1.27,1.64,1.9,2.53v3.78l-3,2.86c2.87,2.47,2.14,6.27,4.53,9.33H425c-.77-2.24-1.55-4.53-2.44-7.14a5.67,5.67,0,0,0-4.8-.79Zm6.63-14.28-2.51-1.6h-4.26c.08,2.05-.1,4,.12,5.87h4.78l1.87-1.87Z" transform="translate(-46.42 -261.2)"/><path d="M452.65,442.59l-2,2v6.93H447V431.62h3.7v8.32l8.28-8.39h3.85a7.26,7.26,0,0,1-.83,1.62c-2.27,2.32-4.58,4.6-6.88,6.89,2.48,4,6.37,6.86,8.54,11.43h-4.27Z" transform="translate(-46.42 -261.2)"/><path d="M501.79,432.45l1-1H514a2.15,2.15,0,0,1,1,2.84h-8.65v5.28h7.89v3h-7.93v6H515v3c-4.27.15-8.69,0-13.24.08Z" transform="translate(-46.42 -261.2)"/><path d="M410,431.58l1.2,1.37-1.33,1.49H401.3v5.15h8.76v3h-8.8v6h9.58v2.9H397.67c.06.06-.05,0-.12-.11a.7.7,0,0,1-.12-.32c0-6.48,0-12.95,0-19.55Z" transform="translate(-46.42 -261.2)"/><path d="M354,442.57v6h9.5v3H350.31v-20.1c4-.13,8.19,0,12.49-.07v2.92H354v5.29h8.07v2.92Z" transform="translate(-46.42 -261.2)"/><path d="M431.74,405.1h-3.57a16.6,16.6,0,0,0,0-2.44c-.16-1-.15-2.44-.79-3-1.81-1.51-1.61-3.66-2.11-5.51-.74-2.7-1.68-5.4-1.77-8.26,0-.28-.41-.55-.7-.91l1.76-3c1.84.15,1.84.15,3.39,1.55l.47-2.36c2.1-.16,2.27,1.71,2.65,2.67a20,20,0,0,1,.85,5.62,31.9,31.9,0,0,1,0,4.48,9.23,9.23,0,0,0,.83,5.26C434.13,401.6,433.1,403.26,431.74,405.1Z" transform="translate(-46.42 -261.2)"/><path d="M442.22,435.6c-2.21-1.67-4.23-1-5.73-1.14-.85.91-1.51,1.62-2.23,2.41l.88,1.77,5.78,2.21c1.24,1.17,3,2.65,3.81,4.9-.3,2.75-2.5,4.09-4.07,5.87h-9.13c-1.56-.89-1-2.22-1.18-3.75a22.32,22.32,0,0,0,8.85.67l.94-.94v-2.25a9.63,9.63,0,0,0-4.38-2.76c-1.83-.64-4-1.1-4.92-3.47-.61-1.52-.11-2.9-.47-4.24.68-.69,1.32-1.29,1.92-1.93a4.82,4.82,0,0,1,3.87-1.51c2,0,4,0,5.88,0l1.34,1.33Z" transform="translate(-46.42 -261.2)"/><path d="M486.78,431.52h3.53v17.06h9.74v2.94H486.78Z" transform="translate(-46.42 -261.2)"/><path d="M420,406.9c-.9,1.64-2.22,1.28-3.42,1.28l-1.2-1.2c.27-.55.56-1.16,1.05-2.19l-2.21-.59.68-.7c-.74-1.95.11-4-.64-6.1-.69-1.92-.9-4.17-1.89-6s-.2-4.11-2.19-5.33l1-1c.14,0,.37,0,.48.09.89.78,1.76,1.59,3.26,3a36.2,36.2,0,0,0,1.79,5c.91,1.82.52,4,1.77,5.66.23.32.09,1,0,1.47C418.09,402.68,419.13,404.72,420,406.9Z" transform="translate(-46.42 -261.2)"/><path d="M441.55,389.35c.37,2.22.74,4.38,1.12,6.63l-1.55.3L440,389.65Z" transform="translate(-46.42 -261.2)"/><path d="M222.78,353.07c.88-1.49,2.1-1,3.49-1.2l1.47,3.44-2.53-1-1.23.86C223.51,354.37,223.14,353.7,222.78,353.07Z" transform="translate(-46.42 -261.2)"/><path d="M340.71,406.73l.76.62,2.56-1.87c.07,1.38.11,2.31.15,3-.79,1.12-1.73,1.57-2.68,1.08A1.89,1.89,0,0,1,340.71,406.73Z" transform="translate(-46.42 -261.2)"/><path d="M409.72,372.89c.72.72,1.33,1.34,1.82,1.82v2l-3.05-2.16Z" transform="translate(-46.42 -261.2)"/><path d="M424.63,377.19c3.11-.54,3.42-.27,3.29,2.38-1.38.66-1-.77-1.51-1.23A13.63,13.63,0,0,0,424.63,377.19Z" transform="translate(-46.42 -261.2)"/><path d="M228,383.77l1.12-1.13,1.17,2.28c0-.06-.23.52-.65,1.48Z" transform="translate(-46.42 -261.2)"/><path d="M88.72,400.06l-1.6-1.31L89,398.4l.22,1.16Z" transform="translate(-46.42 -261.2)"/><path class="cls-1" d="M309.67,444.2c-2.17-.24-2.16,1.42-2.46,2.91h-4.14a19,19,0,0,1-1.62-2.62,4.1,4.1,0,0,0-3-2.68,7.64,7.64,0,0,1-3.36-2.66,70.19,70.19,0,0,1-5.5-7.11c-1.13-1.78-2-3.7-3-5.51-1.62-3-3.48-5.79-5.05-8.75-2.1-4-4.29-8-4.83-12.58h1.12c1.47-3.11,1.47-3.11,3.38-4.13a3.84,3.84,0,0,1,.11-1.12c.34,0,.79,0,1.4-.09l-.16-1.46-2.23.2a10.53,10.53,0,0,1,1,1.35c-.57-.09-1.16,0-1.47-.29-.86-.71-1.61-1.56-2.4-2.34v-2.26c-.85-.86-2-1.58-1.22-3.47.28.62.42,1,.63,1.37s.58.8.95,1.31l1.7-1.07c1.47.15,2.17,1.37,3.29,2.43l1.95-1.79a14.62,14.62,0,0,1,1.78,6.51,10.64,10.64,0,0,1,4.42,4c.13.18.08.51.23.64a35.39,35.39,0,0,0,3.3,2.78c1,.68,1.12,2.45,1.69,3.71.14.31.51.53,1,1l-1,2.72c1.21,1.46,3.08,2.85,3.63,4.64a17.44,17.44,0,0,0,2.57,4.56c2.26,3.46,4.91,6.64,7.21,10.09,1.07,1.62.76,3.77,2.8,5.06C310.63,440.82,310.4,442.63,309.67,444.2Z" transform="translate(-46.42 -261.2)"/><path class="cls-1" d="M271.36,346.7h5.93c1.19,2.23,2.95,4.45,3.54,6.95.62,2.68.14,5.62.14,8.73-1.72,2.74-1.77,2.78-6.13,5.25h-3.13c-.14-.17-.28-.26-.28-.35,0-3.73,0-7.46,0-11.29l-3.88-5.5-2.77-.16Z" transform="translate(-46.42 -261.2)"/><path class="cls-1" d="M265.38,341.46c2.15-1.06,3.44-2,5.11-1.33C268.48,341.41,268.48,341.41,265.38,341.46Z" transform="translate(-46.42 -261.2)"/><path class="cls-1" d="M276.66,373.85l2.19-.11,0,.5-2.21.29Z" transform="translate(-46.42 -261.2)"/><path class="cls-1" d="M276.68,375.05l-2.19.1,0-.5,2.21-.29Z" transform="translate(-46.42 -261.2)"/><path class="cls-1" d="M266.19,342l-1.43.12-.07-.48,1.47-.29Z" transform="translate(-46.42 -261.2)"/><path class="cls-1" d="M313.4,456.37l1.43-.13.07.49-1.47.28Z" transform="translate(-46.42 -261.2)"/><path class="cls-1" d="M275.85,404.53l-.61-.53.24-.23.52.61Z" transform="translate(-46.42 -261.2)"/><path class="cls-1" d="M276.67,405.2l-.75-.75Z" transform="translate(-46.42 -261.2)"/><path class="cls-1" d="M274.35,411.28l-.61-.53.24-.23.52.61Z" transform="translate(-46.42 -261.2)"/><path class="cls-1" d="M309.74,444.12l.61.52-.24.24-.52-.61Z" transform="translate(-46.42 -261.2)"/><ellipse class="cls-1" cx="271.88" cy="183.37" rx="0.18" ry="0.53"/><path class="cls-1" d="M313.5,457l-.52.61-.24-.24.61-.52Z" transform="translate(-46.42 -261.2)"/><path class="cls-1" d="M207.57,386.16l1.67-1.61v-2.87c.4.47.67.65.66.8-.14,1.53.24,3-.62,4.61a4.7,4.7,0,0,0,0,4c.84,1.42.33,2.84.79,4.3l2,1.15-.91,1.68-2.44.81-1.7-.84a6.24,6.24,0,0,1,1.48-5.57C207,390.51,208.05,388.21,207.57,386.16Z" transform="translate(-46.42 -261.2)"/><path class="cls-1" d="M227.17,447.2c-1.65,0-2.67-1.25-4-2-3.91-2.26-6.9-5.51-10-8.66-.27-.27-.19-.88-.27-1.34,1.56,1.41,3.65,1.87,5.31,3.27a29.77,29.77,0,0,1,5.65,5.73A19.7,19.7,0,0,0,227.17,447.2Z" transform="translate(-46.42 -261.2)"/><path class="cls-1" d="M207.05,427.09l-5-8.74,4.6,2c.33,2.16.68,4.38,1,6.6Z" transform="translate(-46.42 -261.2)"/><path class="cls-1" d="M207.67,427a1.85,1.85,0,0,1,1.5,2.25A1.86,1.86,0,0,1,207.67,427Z" transform="translate(-46.42 -261.2)"/><path class="cls-1" d="M216.7,368.45l-.11,1.49-1.43-.1,1.14-1.76Z" transform="translate(-46.42 -261.2)"/><path class="cls-1" d="M210.5,429.93l.13,1.43-.49.07-.29-1.47Z" transform="translate(-46.42 -261.2)"/><path class="cls-1" d="M204.54,355.07v1.24l-.35.06-.3-1.22Z" transform="translate(-46.42 -261.2)"/><path class="cls-1" d="M205.55,354.06v-1.24l.37-.05.27,1.25Z" transform="translate(-46.42 -261.2)"/><ellipse class="cls-1" cx="180.38" cy="127.88" rx="0.53" ry="0.18"/><ellipse class="cls-1" cx="175.13" cy="124.13" rx="0.18" ry="0.53"/><path class="cls-1" d="M209.17,429.2l.75.75Z" transform="translate(-46.42 -261.2)"/><path class="cls-1" d="M202.5,358l-.52.61-.24-.24.61-.52Z" transform="translate(-46.42 -261.2)"/><path class="cls-1" d="M216.59,368.38l.52-.61.24.23-.61.53Z" transform="translate(-46.42 -261.2)"/><ellipse class="cls-1" cx="180.38" cy="101.63" rx="0.18" ry="0.53"/><path class="cls-1" d="M189.59,363.13l.52-.61.24.23-.61.53Z" transform="translate(-46.42 -261.2)"/><ellipse class="cls-1" cx="152.63" cy="100.13" rx="0.18" ry="0.53"/><path class="cls-1" d="M202.34,357.88l.52-.61.24.23-.61.53Z" transform="translate(-46.42 -261.2)"/><path class="cls-1" d="M212.85,435.28l-.61-.53.24-.23.52.61Z" transform="translate(-46.42 -261.2)"/><path class="cls-1" d="M221.1,351.28l-.61-.53.24-.23.52.61Z" transform="translate(-46.42 -261.2)"/><path class="cls-1" d="M227.24,447.12l.61.52-.24.24-.52-.61Z" transform="translate(-46.42 -261.2)"/><path class="cls-1" d="M475.16,395.9c.31-2.13.51-3.51.8-5.48l-1.08-1.17a58.46,58.46,0,0,0-2.94-13.88c2-.62,3.77.32,5.5,1.48a15.46,15.46,0,0,0,2,1.43c2.13,1.06,4.12,2.43,5.07,4.85.29.73,1,1.27,1.89,2.26l-2.69.46c0,.47-.05,1-.08,1.57Z" transform="translate(-46.42 -261.2)"/><path class="cls-1" d="M507.43,373.83l1.73,1.73v2.21c-2,2.28-4.06,4.21-7.6,3.15,1.06-2.4,2.08-4.7,3.13-7.09Z" transform="translate(-46.42 -261.2)"/><path class="cls-1" d="M349,383.21c1.7,2.28,2.14,4.4,1.4,6.29l-.89,2.59c-.87-1.73-1.33-2.62-1.78-3.52C346.65,386.88,348.4,385.4,349,383.21Z" transform="translate(-46.42 -261.2)"/><path class="cls-1" d="M356.34,406.72l-.13-1.44.49-.06.29,1.46Z" transform="translate(-46.42 -261.2)"/><path class="cls-1" d="M353.17,406v-1.5l.75.93Z" transform="translate(-46.42 -261.2)"/><path class="cls-1" d="M354,401.37l.61.52-.24.24-.52-.61Z" transform="translate(-46.42 -261.2)"/><path class="cls-1" d="M353.1,404.53l-.61-.53.24-.23.52.61Z" transform="translate(-46.42 -261.2)"/><path class="cls-1" d="M357,406.62l.61.52-.24.24-.52-.61Z" transform="translate(-46.42 -261.2)"/><path class="cls-1" d="M401.85,394.78l-.61-.53.24-.23.52.61Z" transform="translate(-46.42 -261.2)"/><ellipse class="cls-1" cx="274.88" cy="136.88" rx="0.53" ry="0.18"/><path class="cls-1" d="M445.59,391.72l-.13-1.44.49-.06.29,1.46Z" transform="translate(-46.42 -261.2)"/><path class="cls-1" d="M479.92,443.81c-3,4.93-3,4.93-9.41,4.86l-3.2-3.21c-.1-2.1-1.26-4.12-.19-6.4a7.4,7.4,0,0,1,5.15-4.69c3.17-.59,6.31.57,7.65,5.8Z" transform="translate(-46.42 -261.2)"/><path class="cls-1" d="M424.42,436.17v2.4l-1.87,1.87h-4.78c-.22-1.89,0-3.82-.12-5.87h4.26Z" transform="translate(-46.42 -261.2)"/><path d="M281.39,400l-1.1-1.36,2.23-.2.16,1.46Z" transform="translate(-46.42 -261.2)"/></svg>